<mxfile host="Electron" agent="Mozilla/5.0 (Windows NT 10.0; Win64; x64) AppleWebKit/537.36 (KHTML, like Gecko) draw.io/24.7.8 Chrome/128.0.6613.36 Electron/32.0.1 Safari/537.36" version="24.7.8">
  <diagram name="Page-1" id="4Mi333iJjW-2TDgaV62E">
    <mxGraphModel dx="1015" dy="763" grid="1" gridSize="10" guides="1" tooltips="1" connect="1" arrows="1" fold="1" page="1" pageScale="1" pageWidth="1169" pageHeight="827" math="0" shadow="0">
      <root>
        <mxCell id="0" />
        <mxCell id="1" parent="0" />
        <mxCell id="qZLAZeyIldf6Ieg6StlQ-1" value="" style="rounded=1;whiteSpace=wrap;html=1;fillColor=#fff2cc;strokeColor=#d6b656;" vertex="1" parent="1">
          <mxGeometry x="300" y="310" width="560" height="260" as="geometry" />
        </mxCell>
        <mxCell id="qZLAZeyIldf6Ieg6StlQ-6" value="Container Row (Reply Summary)&lt;br&gt;&lt;font style=&quot;font-size: 8px;&quot;&gt;1. Row (Sender Initials)&lt;br&gt;2. Row (Reply Message Summary Text)&lt;/font&gt;" style="rounded=0;whiteSpace=wrap;html=1;fillColor=#e1d5e7;strokeColor=#9673a6;" vertex="1" parent="1">
          <mxGeometry x="320" y="330" width="520" height="60" as="geometry" />
        </mxCell>
        <mxCell id="qZLAZeyIldf6Ieg6StlQ-7" value="Container Message Content&lt;br&gt;1. Row with (Text / Image Container / Video Container)" style="rounded=0;whiteSpace=wrap;html=1;fillColor=#dae8fc;strokeColor=#6c8ebf;" vertex="1" parent="1">
          <mxGeometry x="320" y="390" width="520" height="160" as="geometry" />
        </mxCell>
        <mxCell id="qZLAZeyIldf6Ieg6StlQ-8" value="&lt;font style=&quot;font-size: 18px;&quot;&gt;Chat Bubble Structure (Chat Bubble Container)&lt;/font&gt;" style="text;html=1;align=center;verticalAlign=middle;whiteSpace=wrap;rounded=0;" vertex="1" parent="1">
          <mxGeometry x="385" y="280" width="400" height="30" as="geometry" />
        </mxCell>
        <mxCell id="qZLAZeyIldf6Ieg6StlQ-9" value="Avatar Image" style="ellipse;whiteSpace=wrap;html=1;aspect=fixed;fillColor=#fff2cc;strokeColor=#d6b656;" vertex="1" parent="1">
          <mxGeometry x="200" y="310" width="80" height="80" as="geometry" />
        </mxCell>
        <mxCell id="qZLAZeyIldf6Ieg6StlQ-11" value="hh:mm" style="text;html=1;align=center;verticalAlign=middle;whiteSpace=wrap;rounded=0;" vertex="1" parent="1">
          <mxGeometry x="300" y="580" width="60" height="30" as="geometry" />
        </mxCell>
        <mxCell id="qZLAZeyIldf6Ieg6StlQ-12" value="Emoji Rections Container" style="rounded=1;whiteSpace=wrap;html=1;fillColor=#fff2cc;strokeColor=#d6b656;" vertex="1" parent="1">
          <mxGeometry x="560" y="585" width="300" height="20" as="geometry" />
        </mxCell>
      </root>
    </mxGraphModel>
  </diagram>
</mxfile>
